# xmcd CD database file
#
# Track frame offsets:
#	150
#	12467
#	26682
#	36900
#	52027
#	63555
#	77587
#	87892
#	100717
#	113735
#	124945
#	138630
#	153965
#	171692
#	183552
#	198760
#	212242
#	227510
#	238552
#	246865
#
# Disc length: 3445 seconds
#
# Revision: 4
# Processed by: cddbd v1.5.2PL0 Copyright (c) Steve Scherf et al.
# Submitted via: CDex 1.51
#
DISCID=160d7314
DTITLE=### - Mega Country (5/10)
DYEAR=1997
DGENRE=Country
TTITLE0=Crystal Gayle - Don't it make my brown eyes blue
TTITLE1=Conway Twitty - You've never been this far before
TTITLE2=Roger Miller - Engine engine #9
TTITLE3=Kenny Rogers - Just dropped in (to see what condition my condition was in)
TTITLE4=Lynn Anderson - Listen to a country song
TTITLE5=Michael Johnson - Bluer than blue
TTITLE6=Loretta Lynn - You're lookin' at country (LIVE PERFORMANCE)
TTITLE7=Johnny Cash - Folsom Prison Blues
TTITLE8=Johnny Paycheck - Take this job and shove it
TTITLE9=Box Car Willie - In The Jailhouse Now
TTITLE10=Porter Wagoner - Green green grass of home
TTITLE11=Gina Jeffries - Up close personal attention
TTITLE12=The Gatlin Brothers - Love is just a game
TTITLE13=Stonewall Jackson - Waterloo
TTITLE14=Billie Jo Spears - Blanket on the ground
TTITLE15=Freddy Weller - The perfect stranger
TTITLE16=Cal Smith - I've found someone of my own
TTITLE17=Jerry Wallace - Primrose Lane
TTITLE18=Slim Whitman - Have you ever been lonely, have you ever been blue?
TTITLE19=Patsy Cline - Walkin' after midnight
EXTD=YEAR: 1997
EXTT0=
EXTT1=
EXTT2=
EXTT3=
EXTT4=
EXTT5=
EXTT6=
EXTT7=
EXTT8=
EXTT9=
EXTT10=
EXTT11=
EXTT12=
EXTT13=
EXTT14=
EXTT15=
EXTT16=
EXTT17=
EXTT18=
EXTT19=
PLAYORDER=
